
<svg width="94px" height="94px" viewBox="599 925 94 94" version="1.1" xmlns="http://www.w3.org/2000/svg" xmlns:xlink="http://www.w3.org/1999/xlink">
	<path d="M673.309451,953.468724 C676.901032,958.751338 679,965.130549 679,972 C679,990.225397 664.225397,1005 646,1005 C639.130549,1005 632.751338,1002.90103 627.468724,999.309451 L673.309451,953.468724 Z M665.699462,945.522364 C660.201429,941.425138 653.383925,939 646,939 C627.774603,939 613,953.774603 613,972 C613,979.383925 615.425138,986.201429 619.522364,991.699462 L665.699462,945.522364 Z M646,1019 C671.957383,1019 693,997.957383 693,972 C693,946.042617 671.957383,925 646,925 C620.042617,925 599,946.042617 599,972 C599,997.957383 620.042617,1019 646,1019 Z" id="Combined-Shape" stroke="none" fill="#FFFFFF" fill-rule="evenodd"></path>
</svg>