<?xml version="1.0" encoding="UTF-8" standalone="no"?>
<svg width="85px" height="93px" viewBox="0 0 85 93" version="1.1" xmlns="http://www.w3.org/2000/svg" xmlns:xlink="http://www.w3.org/1999/xlink">
    <!-- Generator: Sketch 3.7.2 (28276) - http://www.bohemiancoding.com/sketch -->
    <title>logout</title>
    <desc>Created with Sketch.</desc>
    <defs></defs>
    <g id="Page-1" stroke="none" stroke-width="1" fill="none" fill-rule="evenodd">
        <g id="logout" fill="#FFFFFF">
            <g id="Page-1">
                <path d="M29.2519821,9.23170798 C12.3127162,14.8468096 -1.42108547e-14,30.8927352 -1.42108547e-14,49.963945 C-1.42108547e-14,73.698646 18.9824816,92.9512728 42.3840939,92.9512728 C65.7857507,92.9512728 84.7681547,73.698646 84.7681547,49.963945 C84.7681547,30.8906794 72.3960271,14.8432397 55.4467024,9.23170798 L55.4467024,24.5943835 C64.4899896,29.4106481 70.8022906,38.8928395 70.8022906,49.963945 C70.8022906,65.8537844 58.0509503,78.7866002 42.3840939,78.7866002 C26.7172376,78.7866002 13.9659195,65.8537844 13.9659195,49.963945 C13.9659195,38.8991525 20.2108991,29.4121452 29.2519817,24.5943835 L29.2519817,9.23170798 L29.2519821,9.23170798 L29.2519821,9.23170798 Z M35.2274649,-1.42108547e-14 L35.2274649,51.021016 L49.5407685,51.021016 L49.5407685,-1.42108547e-14 L35.2274649,-1.42108547e-14 L35.2274649,-1.42108547e-14 Z" id="Combined-Shape"></path>
            </g>
        </g>
    </g>
</svg>