<?xml version="1.0" standalone="no"?>
<!DOCTYPE svg PUBLIC "-//W3C//DTD SVG 1.1//EN" "http://www.w3.org/Graphics/SVG/1.1/DTD/svg11.dtd" >
<svg xmlns="http://www.w3.org/2000/svg">
<metadata></metadata>
<defs>
<font id="verblight" horiz-adv-x="640" >
<font-face units-per-em="1000" ascent="800" descent="-200" />
<missing-glyph horiz-adv-x="278" />
<glyph unicode="&#xfb01;" horiz-adv-x="581" d="M36 475v50h73v87q0 117 103 117q50 0 121 -25l-21 -47q-61 17 -90 17q-51 0 -51 -57v-92h144v-50h-144v-475h-62v475h-73zM493 0h-62v525h62v-525zM427 639v87h72v-87h-72z" />
<glyph unicode="&#xfb02;" horiz-adv-x="592" d="M36 475v50h73v87q0 117 103 117q50 0 121 -25l-21 -47q-61 17 -90 17q-51 0 -51 -57v-92h144v-50h-144v-475h-62v475h-73zM499 0h-62v729h62v-729z" />
<glyph unicode="&#xfb03;" horiz-adv-x="923" d="M36 475v50h73v87q0 117 107 117q55 0 147 -32l-24 -47q-88 24 -117 24q-51 0 -51 -57v-92h142v-50h-142v-475h-62v475h-73zM379 475v50h73v87q0 117 103 117q50 0 121 -25l-21 -47q-61 17 -90 17q-51 0 -51 -57v-92h144v-50h-144v-475h-62v475h-73zM835 0h-62v525h62 v-525zM769 639v87h72v-87h-72z" />
<glyph unicode="&#xfb04;" horiz-adv-x="935" d="M36 475v50h73v87q0 117 107 117q55 0 147 -32l-24 -47q-88 24 -117 24q-51 0 -51 -57v-92h142v-50h-142v-475h-62v475h-73zM379 475v50h73v87q0 117 103 117q50 0 121 -25l-21 -47q-61 17 -90 17q-51 0 -51 -57v-92h144v-50h-144v-475h-62v475h-73zM841 0h-62v729h62 v-729z" />
<glyph horiz-adv-x="0" />
<glyph horiz-adv-x="333" />
<glyph unicode=" "  horiz-adv-x="278" />
<glyph unicode="&#x09;" horiz-adv-x="278" />
<glyph unicode="&#xa0;" horiz-adv-x="278" />
<glyph unicode="!" horiz-adv-x="260" d="M91 0v103h79v-103h-79zM167 700l-17 -496h-40l-18 496h75z" />
<glyph unicode="&#x22;" horiz-adv-x="444" d="M145 700l-13 -255h-46l-12 255h71zM327 700l-13 -255h-46l-12 255h71z" />
<glyph unicode="#" horiz-adv-x="748" d="M423 0l29 186h-209l-29 -186h-54l29 186h-140v52h148l35 223h-140v52h148l30 187h54l-30 -187h209l30 187h53l-29 -187h141v-52h-149l-35 -223h141v-52h-149l-29 -186h-54zM286 461l-35 -223h209l35 223h-209z" />
<glyph unicode="$" horiz-adv-x="594" d="M326 -100h-51v92q-119 14 -226 79l32 50q95 -57 194 -71v287l-3 1q-37 12 -60 20.5t-54 25.5t-49 35t-31 47.5t-13 64.5q0 84 60 131t150 49v90h51v-93q104 -13 194 -60l-31 -50q-78 39 -163 52v-262q37 -12 63 -22t59 -28.5t53 -39.5t34 -52.5t14 -69.5 q0 -89 -65.5 -137t-157.5 -50v-89zM483 172q0 53 -39.5 86t-117.5 61v-273q65 1 111 33.5t46 92.5zM131 535q0 -52 35 -79t109 -52v250q-61 -2 -102.5 -32t-41.5 -87z" />
<glyph unicode="%" horiz-adv-x="982" d="M936 176q0 -90 -48 -138.5t-129 -48.5q-80 0 -128 48.5t-48 138.5q0 91 48 139.5t128 48.5q81 0 129 -48.5t48 -139.5zM880 176q0 68 -32 104.5t-89 36.5t-88 -36.5t-31 -104.5q0 -67 31 -103.5t88 -36.5t89 36.5t32 103.5zM398 523q0 -91 -48 -139t-129 -48 q-80 0 -128 48.5t-48 138.5q0 91 48 139.5t128 48.5q81 0 129 -48.5t48 -139.5zM342 523q0 68 -32 104.5t-89 36.5t-88 -36.5t-31 -104.5q0 -67 31 -103.5t88 -36.5t89 36.5t32 103.5zM704 700l-369 -700h-58l369 700h58z" />
<glyph unicode="&#x26;" horiz-adv-x="683" d="M676 0h-82l-87 89q-90 -100 -218 -100q-92 0 -153.5 48.5t-61.5 132.5q0 36 12 67t36 57.5t46 44t57 41.5q-31 33 -48.5 54t-34 57t-16.5 72q0 73 51.5 110.5t115.5 37.5q65 0 110.5 -38.5t45.5 -105.5q0 -60 -35.5 -104t-100.5 -91l187 -192q48 84 62 189h65 q-16 -130 -84 -233zM289 43q104 0 177 88l-201 208q-64 -45 -96 -80.5t-32 -82.5q0 -49 37 -91t115 -42zM188 562q0 -29 15 -59t30.5 -48t40.5 -43q55 37 84.5 72.5t29.5 81.5q0 39 -24 65.5t-72 26.5q-49 0 -76.5 -27.5t-27.5 -68.5z" />
<glyph unicode="'" horiz-adv-x="232" d="M145 700l-13 -255h-46l-12 255h71z" />
<glyph unicode="(" horiz-adv-x="306" d="M78 26v643q0 41 3.5 61.5t19 42.5t48 36t90.5 30l20 -46q-60 -19 -82.5 -33t-28 -30.5t-5.5 -60.5v-642q0 -44 5.5 -60.5t28 -30.5t82.5 -33l-20 -46q-58 16 -90.5 30t-48 35.5t-19 42t-3.5 61.5z" />
<glyph unicode=")" horiz-adv-x="306" d="M228 670v-643q0 -41 -3.5 -61.5t-19 -42.5t-48 -36t-90.5 -30l-20 46q60 19 82.5 33t28 30.5t5.5 60.5v642q0 44 -5.5 60.5t-28 30.5t-82.5 33l20 46q58 -16 90.5 -30t48 -35.5t19 -42t3.5 -61.5z" />
<glyph unicode="*" horiz-adv-x="478" d="M209 331l15 155l-131 -91l-31 51l146 65l-145 68l31 51l130 -93l-15 155h60l-14 -154l129 91l30 -52l-146 -65l146 -67l-31 -51l-128 91l14 -154h-60z" />
<glyph unicode="+" d="M293 557h53v-198h223v-52h-223v-197h-53v197h-222v52h222v198z" />
<glyph unicode="," horiz-adv-x="243" d="M87 0v106h75l11 -110l-69 -122l-25 25l44 101h-36z" />
<glyph unicode="-" horiz-adv-x="434" d="M353 256h-273v57h273v-57z" />
<glyph unicode="." horiz-adv-x="238" d="M79 0v106h79v-106h-79z" />
<glyph unicode="/" horiz-adv-x="441" d="M416 790l-335 -880h-55l335 880h55z" />
<glyph unicode="0" horiz-adv-x="647" d="M324 711q125 0 189 -93t64 -268t-64 -268t-189 -93t-190 93t-65 268t65 268t190 93zM324 43q187 0 187 307q0 306 -187 306q-96 0 -142 -80.5t-46 -225.5t46 -226t142 -81z" />
<glyph unicode="1" horiz-adv-x="348" d="M246 0h-65v631l-126 -66l-28 47l162 88h57v-700z" />
<glyph unicode="2" horiz-adv-x="569" d="M505 57v-57h-451v51q0 50 16 90.5t46 72t63 57t76 54.5q15 9 22 14q54 37 82.5 60t54 60t25.5 76q0 53 -39.5 86t-107.5 33q-101 0 -186 -62l-33 45q104 74 221 74q95 0 152.5 -47.5t57.5 -127.5q0 -22 -4 -41.5t-13.5 -38.5t-18 -33.5t-27 -32t-29.5 -28.5t-35.5 -28.5 t-35.5 -25.5t-40 -27t-39 -26q-75 -51 -107 -91.5t-32 -106.5h382z" />
<glyph unicode="3" horiz-adv-x="577" d="M41 57l31 49q30 -19 86 -39.5t112 -20.5q76 0 127 40.5t51 107.5q0 55 -38 93.5t-87.5 53.5t-103.5 15h-31v58h36q78 0 135.5 35t57.5 97q0 50 -38.5 79t-102.5 29q-89 0 -174 -58l-30 44q95 71 211 71q93 0 146 -47t53 -115q0 -50 -34 -94.5t-105 -68.5 q75 -18 123.5 -69.5t48.5 -122.5q0 -83 -62 -144t-176 -61q-70 0 -134 22t-102 46z" />
<glyph unicode="4" horiz-adv-x="610" d="M36 161v52l342 487h83v-482h108v-57h-108v-161h-65v161h-360zM106 218h290v419z" />
<glyph unicode="5" horiz-adv-x="566" d="M80 357l38 343h363v-57h-312l-20 -234q58 31 129 31q104 0 167.5 -64.5t63.5 -158.5q0 -93 -64.5 -160.5t-178.5 -67.5q-104 0 -214 67l31 50q89 -59 177 -59q74 0 128 47.5t54 123.5q0 70 -47 118t-127 48q-74 0 -153 -45z" />
<glyph unicode="6" horiz-adv-x="605" d="M419 655q-100 0 -181 -74.5t-101 -219.5q26 32 74.5 58.5t118.5 26.5q104 0 163 -64t59 -158q0 -98 -64 -166.5t-171 -68.5q-62 0 -111.5 25t-79 67t-45 92.5t-15.5 105.5q-1 104 29 188.5t80 136.5t112.5 79.5t129.5 27.5q23 0 45.5 -2.5t33.5 -5.5l11 -3l-16 -54 q-33 9 -72 9zM322 392q-69 0 -120.5 -34.5t-69.5 -75.5v-6q0 -97 47 -164t137 -67q81 0 126 53.5t45 125.5q0 68 -41.5 118t-123.5 50z" />
<glyph unicode="7" horiz-adv-x="492" d="M471 651q-11 -13 -28 -36.5t-62 -97t-79 -147t-62 -176t-28 -194.5h-70q0 82 25 177t56 166t73 145t61.5 103t36.5 52h-364v57h441v-49z" />
<glyph unicode="8" horiz-adv-x="616" d="M58 178q0 130 174 199q-133 58 -133 166q0 76 58.5 122t149.5 46q92 0 151 -46t59 -122q0 -108 -134 -166q175 -70 175 -199q0 -87 -72 -138t-179 -51t-178 51t-71 138zM491 180q0 33 -15.5 60.5t-44.5 48t-57.5 34.5t-66.5 27q-37 -13 -65.5 -27t-57 -34.5t-44 -48 t-15.5 -60.5q0 -62 52.5 -99t129.5 -37q79 0 131.5 36.5t52.5 99.5zM163 539q0 -29 14 -52t39 -39.5t45 -25.5t47 -18q27 9 47 18t45 25.5t39 39.5t14 52q0 49 -41.5 83.5t-104.5 34.5q-62 0 -103 -34.5t-41 -83.5z" />
<glyph unicode="9" horiz-adv-x="605" d="M186 45q101 0 181 74t100 219q-26 -32 -74.5 -58t-117.5 -26q-104 0 -163 64t-59 158q0 98 64.5 166.5t171.5 68.5q82 0 140.5 -44t84 -107.5t26.5 -138.5q0 -104 -29.5 -188.5t-80 -136.5t-112.5 -79.5t-130 -27.5q-23 0 -45.5 2.5t-33.5 5.5l-11 3l17 54q32 -9 71 -9z M283 308q67 0 119 34t71 74v8q0 97 -47 164t-136 67q-81 0 -126.5 -53.5t-45.5 -125.5q0 -68 41.5 -118t123.5 -50z" />
<glyph unicode=":" horiz-adv-x="241" d="M81 349v106h79v-106h-79zM81 0v106h79v-106h-79z" />
<glyph unicode=";" horiz-adv-x="258" d="M93 349v106h79v-106h-79zM94 0v106h75l11 -110l-69 -122l-25 25l44 101h-36z" />
<glyph unicode="&#x3c;" d="M57 359l497 211v-63l-427 -173l427 -174v-63l-497 212v50z" />
<glyph unicode="=" d="M71 397v52h498v-52h-498zM71 219v53h498v-53h-498z" />
<glyph unicode="&#x3e;" d="M582 309l-497 -211v63l427 173l-427 174v63l497 -212v-50z" />
<glyph unicode="?" horiz-adv-x="498" d="M169 0v103h77v-103h-77zM452 545q0 -145 -215 -200l-5 -141h-49l-6 178q104 23 157.5 58.5t53.5 98.5q0 55 -40 85t-101 30q-80 0 -177 -60l-33 44q40 29 97.5 51t118.5 22q81 0 140 -43.5t59 -122.5z" />
<glyph unicode="@" horiz-adv-x="969" d="M917 254q-1 -122 -51 -198t-137 -76q-110 0 -120 117q-80 -73 -170 -73q-59 0 -102 34.5t-43 111.5q0 75 43.5 113t107.5 38q18 0 43 -3.5t42 -7t44.5 -9.5t33.5 -7v59q0 55 -21 79.5t-77 24.5q-67 0 -161 -41l-25 43q102 45 191 45q147 0 147 -144v-215q0 -22 0.5 -34.5 t4.5 -31.5t11 -29t21.5 -18t34.5 -8q50 0 95 55.5t45 175.5q0 173 -96 281.5t-280 108.5q-183 0 -288.5 -113t-105.5 -279q0 -167 103 -279t269 -112q55 0 103 11t69 23l20 11l26 -32q-8 -6 -24.5 -15t-72.5 -24t-120 -15q-185 0 -300.5 123.5t-115.5 308.5q0 187 119.5 310 t319.5 123q199 0 307.5 -118.5t109.5 -313.5zM449 71q79 0 159 76v111q-9 1 -39 7t-56.5 9.5t-48.5 3.5q-60 0 -87.5 -31t-27.5 -77q0 -50 27.5 -74.5t72.5 -24.5z" />
<glyph unicode="A" horiz-adv-x="673" d="M575 0l-68 182h-341l-68 -182h-70l274 700h69l274 -700h-70zM336 637l-149 -399h299z" />
<glyph unicode="B" horiz-adv-x="661" d="M606 186q0 -87 -58 -136.5t-167 -49.5h-280v700h231q112 0 173.5 -44.5t61.5 -126.5q0 -68 -39 -109.5t-83 -48.5q25 -4 50 -14.5t51.5 -31t43 -56.5t16.5 -83zM503 522q0 56 -41.5 89.5t-125.5 33.5h-170v-250h164q77 0 125 32t48 95zM542 195q0 146 -206 146h-170v-286 h212q81 0 122.5 38.5t41.5 101.5z" />
<glyph unicode="C" horiz-adv-x="639" d="M597 608l-36 -47q-133 91 -221 91q-91 0 -148 -80.5t-57 -221.5t57 -221.5t148 -80.5q88 0 221 91l36 -47q-150 -103 -259 -103q-116 0 -193.5 90.5t-77.5 270.5t77.5 270.5t193.5 90.5q109 0 259 -103z" />
<glyph unicode="D" horiz-adv-x="696" d="M629 350q0 -350 -323 -350h-205v700h205q323 0 323 -350zM560 350q0 151 -61.5 222t-194.5 71h-138v-586h138q133 0 194.5 71t61.5 222z" />
<glyph unicode="E" horiz-adv-x="589" d="M534 0h-433v700h427v-57h-362v-265h300v-56h-300v-265h368v-57z" />
<glyph unicode="F" horiz-adv-x="562" d="M528 643h-362v-265h291v-57h-291v-321h-65v700h427v-57z" />
<glyph unicode="G" horiz-adv-x="697" d="M558 0v87q-116 -98 -223 -98q-114 0 -191 91t-77 270q0 180 77.5 270.5t193.5 90.5q123 0 271 -110l-38 -48q-42 29 -66 44.5t-73 35t-91 19.5q-91 0 -148.5 -80.5t-57.5 -221.5q0 -140 57 -222t149 -82q95 0 217 110v164h-203v55h267v-375h-64z" />
<glyph unicode="H" horiz-adv-x="705" d="M539 0v339h-373v-339h-65v700h65v-305h373v305h65v-700h-65z" />
<glyph unicode="I" horiz-adv-x="268" d="M166 0h-65v700h65v-700z" />
<glyph unicode="J" horiz-adv-x="269" d="M168 700v-661q0 -28 -0.5 -40.5t-3 -31.5t-9 -28t-17.5 -21.5t-29 -20.5t-42.5 -17t-59.5 -18l-22 51q46 15 68 24t34 24.5t13.5 28.5t1.5 47v663h66z" />
<glyph unicode="K" d="M101 0v700h65v-413l346 413h79l-286 -338l320 -362h-80l-279 317l-100 -118v-199h-65z" />
<glyph unicode="L" horiz-adv-x="543" d="M517 0h-416v700h65v-643h351v-57z" />
<glyph unicode="M" horiz-adv-x="836" d="M670 0v590l-229 -473h-46l-229 472v-589h-65v700h69l248 -510l247 510h70v-700h-65z" />
<glyph unicode="N" horiz-adv-x="721" d="M552 0l-386 603v-603h-65v700h68l386 -603v603h65v-700h-68z" />
<glyph unicode="O" horiz-adv-x="730" d="M365 711q79 0 138 -28t93 -78.5t50.5 -114t16.5 -140.5t-16.5 -140t-50.5 -114t-93 -79t-138 -28t-138 28t-93 79t-50.5 114t-16.5 140t16.5 140.5t50.5 114t93 78.5t138 28zM365 47q63 0 109 23t72 65.5t38 95.5t12 119q0 138 -54.5 220.5t-176.5 82.5t-176 -82.5 t-54 -220.5q0 -303 230 -303z" />
<glyph unicode="P" horiz-adv-x="634" d="M593 490q0 -210 -254 -210h-173v-280h-65v700h238q254 0 254 -210zM526 490q0 153 -183 153h-177v-306h177q183 0 183 153z" />
<glyph unicode="Q" horiz-adv-x="730" d="M365 -11q-79 0 -138 28t-93 79t-50.5 114t-16.5 140t16.5 140.5t50.5 114t93 78.5t138 28t138 -28t93 -78.5t50.5 -114t16.5 -140.5q0 -90 -21.5 -161.5t-73 -124t-129.5 -68.5l121 -98l-46 -47zM365 47q63 0 109 23t72 65.5t38 95.5t12 119q0 138 -54.5 220.5 t-176.5 82.5t-176 -82.5t-54 -220.5q0 -303 230 -303z" />
<glyph unicode="R" horiz-adv-x="676" d="M543 0l-188 305h-189v-305h-65v700h260q255 0 255 -197q0 -91 -53 -138t-143 -57l197 -308h-74zM549 503q0 73 -49.5 107t-134.5 34h-199v-283h194q189 0 189 142z" />
<glyph unicode="S" horiz-adv-x="595" d="M320 390q39 -12 65 -22t60 -28.5t54.5 -39.5t35.5 -53t15 -71q0 -90 -68 -138.5t-162 -48.5q-69 0 -142 24.5t-128 57.5l32 50q52 -31 117.5 -53t122.5 -22q67 0 114.5 32.5t47.5 93.5q0 33 -15 58.5t-48 45t-63.5 32t-84.5 30.5q-37 12 -60 20.5t-54 25.5t-49 35 t-31 47.5t-13 64.5q0 85 61.5 132.5t153.5 47.5q58 0 124 -18.5t116 -44.5l-31 -50q-109 56 -208 56q-63 0 -106.5 -30t-43.5 -89q0 -30 10.5 -51.5t41.5 -39t48 -24t68 -23.5q13 -5 20 -7z" />
<glyph unicode="T" horiz-adv-x="562" d="M538 643h-224v-643h-65v643h-225v57h514v-57z" />
<glyph unicode="U" horiz-adv-x="694" d="M600 700v-453q0 -258 -252 -258q-254 0 -254 258v453h65v-453q0 -94 40.5 -147t148.5 -53q106 0 146.5 53t40.5 147v453h65z" />
<glyph unicode="V" horiz-adv-x="671" d="M99 700l236 -632l237 632h72l-274 -700h-69l-274 700h72z" />
<glyph unicode="W" horiz-adv-x="934" d="M627 0l-161 607l-160 -607h-73l-193 700h71l160 -625l163 625h65l163 -625l161 625h72l-195 -700h-73z" />
<glyph unicode="X" horiz-adv-x="607" d="M37 700h76l190 -308l191 308h76l-232 -353l244 -347h-78l-201 301l-200 -301h-78l244 347z" />
<glyph unicode="Y" horiz-adv-x="623" d="M279 0v277l-257 423h73l217 -373l216 373h73l-257 -423v-277h-65z" />
<glyph unicode="Z" horiz-adv-x="606" d="M41 53l433 590h-411v57h490v-53l-435 -590h440v-57h-517v53z" />
<glyph unicode="[" horiz-adv-x="332" d="M295 -144h-202v983h202v-49h-137v-885h137v-49z" />
<glyph unicode="\" horiz-adv-x="440" d="M360 -90l-335 880h54l335 -880h-54z" />
<glyph unicode="]" horiz-adv-x="332" d="M37 839h202v-983h-202v49h137v885h-137v49z" />
<glyph unicode="^" horiz-adv-x="639" d="M471 354l-152 291l-153 -291h-70l191 346h63l192 -346h-71z" />
<glyph unicode="_" horiz-adv-x="704" d="M624 -136h-544v50h544v-50z" />
<glyph unicode="`" horiz-adv-x="207" d="M212 601h-53l-165 128h96z" />
<glyph unicode="a" horiz-adv-x="571" d="M426 0v72q-92 -83 -200 -83q-32 0 -61 8.5t-55 27t-41.5 52t-15.5 78.5q0 86 51.5 129.5t127.5 43.5q27 0 61.5 -5t82 -14.5t50.5 -10.5v66q0 62 -25.5 91t-90.5 29q-64 0 -197 -47l-24 49q135 50 226 50q173 0 173 -166v-370h-62zM238 44q96 0 188 83v129 q-7 1 -33.5 6.5t-45 9t-44.5 6.5t-46 3q-74 0 -106.5 -34.5t-32.5 -89.5q0 -58 32.5 -85.5t87.5 -27.5z" />
<glyph unicode="b" horiz-adv-x="598" d="M88 0v729h62v-276q90 83 189 83q87 0 142.5 -67.5t55.5 -206.5t-55.5 -206t-142.5 -67q-103 0 -189 82v-71h-62zM332 482q-103 0 -182 -90v-260q80 -89 182 -89q69 0 105 58t36 161q0 104 -36 162t-105 58z" />
<glyph unicode="c" horiz-adv-x="520" d="M478 466l-31 -47q-2 1 -15.5 9t-23 13.5t-26.5 13.5t-31.5 13t-32.5 9t-34 4q-69 0 -114.5 -59.5t-45.5 -158.5t46 -159t114 -60q16 0 34 4t32.5 9t31.5 13t26.5 13.5t23 13.5t15.5 9l31 -47q-116 -70 -196 -70q-93 0 -158 72.5t-65 201.5t65 201t158 72q13 0 26.5 -1.5 t27.5 -5t25 -6.5t25 -9t21.5 -9.5t21.5 -11t18 -9.5t17 -10t14 -8z" />
<glyph unicode="d" horiz-adv-x="598" d="M510 0h-62v71q-88 -82 -189 -82q-88 0 -143.5 67t-55.5 206t55.5 206.5t143.5 67.5q99 0 189 -83v276h62v-729zM266 43q101 0 182 89v260q-81 90 -182 90q-69 0 -105 -58t-36 -162q0 -103 36 -161t105 -58z" />
<glyph unicode="e" horiz-adv-x="572" d="M506 245h-382q4 -93 48.5 -148.5t112.5 -55.5q78 0 197 73l33 -43q-28 -16 -35.5 -20.5t-38.5 -20t-50 -22t-49.5 -13t-58.5 -6.5q-96 0 -160.5 72t-64.5 202q0 129 66.5 201t171.5 72q103 0 159 -62.5t56 -163.5zM295 485q-74 0 -119 -53t-51 -142h323q4 195 -153 195z " />
<glyph unicode="f" horiz-adv-x="344" d="M36 475v50h73v87q0 117 107 117q55 0 147 -32l-24 -47q-88 24 -117 24q-51 0 -51 -57v-92h144v-50h-144v-475h-62v475h-73z" />
<glyph unicode="g" horiz-adv-x="598" d="M448 525h62v-565q0 -174 -191 -174q-106 0 -235 36q10 40 15 55q133 -38 215 -38q134 0 134 120v112q-88 -82 -189 -82q-88 0 -143.5 67t-55.5 206t55.5 206.5t143.5 67.5q99 0 189 -83v72zM266 43q101 0 182 89v260q-81 90 -182 90q-69 0 -105 -58t-36 -162 q0 -103 36 -161t105 -58z" />
<glyph unicode="h" horiz-adv-x="600" d="M150 729v-282q118 89 221 89q146 0 146 -160v-376h-62v366q0 117 -98 117q-53 0 -112.5 -30.5t-94.5 -62.5v-390h-62v729h62z" />
<glyph unicode="i" horiz-adv-x="237" d="M149 0h-62v525h62v-525zM83 639v87h72v-87h-72z" />
<glyph unicode="j" horiz-adv-x="239" d="M85 639v87h72v-87h-72zM152 525v-556q0 -32 -0.5 -46t-5 -35t-14 -30.5t-27.5 -23t-45 -22.5t-67 -20l-21 49q47 15 68.5 24t33.5 24.5t13.5 29t1.5 48.5v558h63z" />
<glyph unicode="k" horiz-adv-x="513" d="M459 525l-177 -213l210 -312h-68l-180 267l-94 -113v-154h-62v729h62v-501l237 297h72z" />
<glyph unicode="l" horiz-adv-x="248" d="M155 0h-62v729h62v-729z" />
<glyph unicode="m" horiz-adv-x="915" d="M150 525v-80q99 91 198 91q109 0 136 -100q37 37 92.5 68.5t113.5 31.5q142 0 142 -160v-376h-62v366q0 117 -94 117q-48 0 -98.5 -30.5t-87.5 -68.5v-384h-62v366q0 117 -94 117q-85 0 -184 -97v-386h-62v525h62z" />
<glyph unicode="n" horiz-adv-x="600" d="M150 525v-78q118 89 221 89q146 0 146 -160v-376h-62v366q0 117 -98 117q-53 0 -112.5 -30.5t-94.5 -62.5v-390h-62v525h62z" />
<glyph unicode="o" horiz-adv-x="599" d="M538 262q0 -128 -62 -200.5t-177 -72.5q-116 0 -177.5 72.5t-61.5 200.5q0 129 62 201.5t177 72.5t177 -73t62 -201zM474 262q0 104 -43 162.5t-132 58.5t-131.5 -58.5t-42.5 -162.5q0 -220 174 -220q89 0 132 58t43 162z" />
<glyph unicode="p" horiz-adv-x="598" d="M150 525v-72q87 83 189 83q87 0 142.5 -67.5t55.5 -206.5t-55.5 -206t-142.5 -67q-103 0 -189 82v-275h-62v729h62zM332 482q-103 0 -182 -90v-260q80 -89 182 -89q69 0 105 58t36 161q0 104 -36 162t-105 58z" />
<glyph unicode="q" horiz-adv-x="598" d="M448 -204v275q-88 -82 -189 -82q-88 0 -143.5 67t-55.5 206t55.5 206.5t143.5 67.5q99 0 189 -83v72h62v-729h-62zM266 43q101 0 182 89v260q-81 90 -182 90q-69 0 -105 -58t-36 -162q0 -103 36 -161t105 -58z" />
<glyph unicode="r" horiz-adv-x="377" d="M150 525v-113q4 11 15 27.5t34 41t63 39t88 11.5v-60q-50 0 -89 -17t-59 -41.5t-33 -48.5t-16 -41l-3 -17v-306h-62v525h62z" />
<glyph unicode="s" horiz-adv-x="505" d="M267 295q98 -26 144 -63t46 -100q0 -71 -53.5 -107t-131.5 -36q-110 0 -222 63l29 47q104 -58 190 -58q50 0 88 22.5t38 65.5q0 21 -11.5 38t-24.5 27.5t-40 21.5t-40 15t-43 12t-49.5 14.5t-46 19.5t-42 28t-26.5 38.5t-11 52.5q0 66 50 103t128 37q92 0 196 -52 l-29 -45q-92 45 -167 45q-51 0 -83.5 -22.5t-32.5 -61.5q0 -11 3 -20.5t6.5 -16.5t11.5 -14.5t13.5 -12t17.5 -10.5t17.5 -8.5t19.5 -7t18.5 -5.5t19.5 -5t17 -5z" />
<glyph unicode="t" horiz-adv-x="370" d="M37 475v50h73v132l62 20v-152h145v-50h-145v-373q0 -58 51 -58q39 0 105 28l25 -48q-73 -35 -136 -35q-107 0 -107 117v369h-73z" />
<glyph unicode="u" horiz-adv-x="600" d="M450 0v77q-116 -88 -222 -88q-145 0 -145 160v376h62v-366q0 -117 98 -117q51 0 110 30t97 62v391h62v-525h-62z" />
<glyph unicode="v" horiz-adv-x="549" d="M305 0h-61l-212 525h69l173 -458l173 458h70z" />
<glyph unicode="w" horiz-adv-x="810" d="M541 0l-136 449l-136 -449h-64l-166 525h67l132 -457l136 457h62l135 -457l133 457h66l-166 -525h-63z" />
<glyph unicode="x" horiz-adv-x="570" d="M465 0l-181 226l-179 -226h-79l223 264l-212 261h76l172 -222l170 222h77l-212 -261l224 -264h-79z" />
<glyph unicode="y" horiz-adv-x="550" d="M33 525h69l173 -450l173 450h70l-297 -729h-69l92 207z" />
<glyph unicode="z" horiz-adv-x="499" d="M46 0v51l327 420h-317v54h393v-51l-325 -420h325v-54h-403z" />
<glyph unicode="{" horiz-adv-x="391" d="M31 316v64q115 0 97 126l-13 93q-15 115 39.5 177.5t182.5 62.5h18v-49h-18q-177 0 -156 -178l14 -95q18 -142 -96 -169q114 -28 96 -169l-14 -95q-21 -178 156 -178h18v-49h-18q-128 0 -182.5 62.5t-39.5 177.5l13 93q18 126 -97 126z" />
<glyph unicode="|" horiz-adv-x="240" d="M146 -123h-52v941h52v-941z" />
<glyph unicode="}" horiz-adv-x="391" d="M360 380v-64q-115 0 -97 -126l13 -93q15 -115 -39.5 -177.5t-182.5 -62.5h-18v49h18q177 0 156 178l-14 95q-18 142 96 169q-114 28 -96 169l14 95q21 178 -156 178h-18v49h18q128 0 182.5 -62.5t39.5 -177.5l-13 -93q-18 -126 97 -126z" />
<glyph unicode="~" d="M101 214l-47 18q51 107 147 107q51 0 127.5 -37t117.5 -37q59 0 95 67l46 -19q-50 -106 -146 -106q-51 0 -128 37t-117 37q-27 0 -49.5 -14t-45.5 -53z" />
<glyph unicode="&#xa1;" horiz-adv-x="260" d="M169 700v-103h-79v103h79zM93 0l17 496h40l18 -496h-75z" />
<glyph unicode="&#xa2;" horiz-adv-x="551" d="M327 0h-51v77q-89 5 -150 77t-61 197t61 196.5t150 76.5v76h51v-80q65 -11 167 -74l-32 -46q-2 1 -21.5 13t-33.5 19.5t-37 17t-43 14.5v-428q16 4 33 10t34 15t26.5 14.5t25 15t16.5 10.5l32 -46q-1 -1 -13.5 -8.5l-17.5 -10.5t-18 -10.5t-21 -11.5t-21.5 -10.5 t-24.5 -10t-24.5 -7.5t-26.5 -6v-80zM130 351q0 -94 41.5 -153t104.5 -66v436q-63 -6 -104.5 -65t-41.5 -152z" />
<glyph unicode="&#xa3;" horiz-adv-x="543" d="M73 262v49h106q-7 33 -50.5 104t-43.5 127q0 75 52.5 122t139.5 47q89 0 212 -66l-34 -47q-109 56 -174 56q-62 0 -96.5 -34.5t-34.5 -84.5q0 -44 43 -112.5t51 -111.5h165v-49h-163q-3 -63 -36.5 -119.5t-63.5 -85.5h331v-57h-415v48q5 4 12.5 11t28 29.5t36.5 46 t29.5 58.5t15.5 69h-111z" />
<glyph unicode="&#xa5;" horiz-adv-x="649" d="M94 302v48h154l-213 350h73l217 -373l216 373h73l-213 -350h154v-48h-183l-15 -25v-54h198v-48h-198v-175h-65v175h-198v48h198v54l-15 25h-183z" />
<glyph unicode="&#xa6;" horiz-adv-x="242" d="M147 405h-52v413h52v-413zM147 -123h-52v413h52v-413z" />
<glyph unicode="&#xa7;" horiz-adv-x="514" d="M255 168q-190 48 -190 162q0 90 104 120q-83 41 -83 121q0 66 50 103t128 37q93 0 195 -52l-28 -45q-90 45 -167 45q-51 0 -84.5 -22.5t-33.5 -61.5q0 -12 2.5 -22t10 -18.5t13 -15t18 -13t18.5 -10t22 -8.5t20.5 -6.5t22.5 -6.5t19 -5q95 -26 143 -62t48 -98 q0 -93 -105 -121q83 -41 83 -121q0 -66 -49.5 -103t-127.5 -37q-93 0 -197 52l29 45q92 -45 167 -45q51 0 83.5 22.5t32.5 61.5q0 21 -11 37.5t-22 25.5t-38 19t-35 12t-38 10zM260 418l-17 4q-51 -3 -84 -25.5t-33 -60.5q0 -18 6.5 -32.5t22 -26t26.5 -19t36 -16 t34.5 -11.5t35.5 -10l16 -5q51 3 85 25t34 62q0 21 -12 38.5t-25 28t-41.5 21.5t-40.5 14.5t-43 12.5z" />
<glyph unicode="&#xa8;" horiz-adv-x="226" d="M-5 611v86h72v-86h-72zM159 611v86h71v-86h-71z" />
<glyph unicode="&#xa9;" horiz-adv-x="841" d="M581 505l-26 -31q-1 1 -9 6.5t-10.5 7t-11 7t-12.5 7.5t-12.5 6.5t-15 7t-15.5 5.5t-16.5 4.5t-17 2.5t-19.5 1q-58 0 -94.5 -49.5t-36.5 -130.5q0 -80 36.5 -129t94.5 -49q12 0 24 1.5t21 3.5t20.5 7t17.5 7.5t17 9t14 8t14 8.5l11 8l26 -30q-88 -62 -167 -62 q-74 0 -124 57t-50 160q0 104 50 161t124 57q79 0 167 -62zM64 350q0 157 95 259t262 102t261.5 -102t94.5 -259t-94.5 -259t-261.5 -102t-262 102t-95 259zM102 350q0 -142 84.5 -233.5t233.5 -91.5q150 0 235 91.5t85 233.5t-85 233.5t-235 91.5q-149 0 -233.5 -91.5 t-84.5 -233.5z" />
<glyph unicode="&#xaa;" horiz-adv-x="372" d="M269 385v42q-56 -49 -124 -49q-45 0 -77.5 25t-32.5 76t32.5 77t82.5 26q27 0 119 -17v35q0 34 -15.5 50t-54.5 16q-38 0 -123 -26l-18 37q92 30 147 30q115 0 115 -105v-217h-51zM158 420q56 0 111 46v69q-7 1 -27 5t-39 6.5t-33 2.5q-82 0 -82 -68q0 -61 70 -61z" />
<glyph unicode="&#xab;" horiz-adv-x="683" d="M39 304l306 225v-67l-246 -180l246 -180v-66l-306 225v43zM314 304l306 225v-67l-246 -180l246 -180v-66l-306 225v43z" />
<glyph unicode="&#xac;" horiz-adv-x="639" d="M604 90h-59v217h-513v52h572v-269z" />
<glyph unicode="&#xad;" horiz-adv-x="434" d="M353 256h-273v57h273v-57z" />
<glyph unicode="&#xae;" horiz-adv-x="517" d="M61 520q0 87 53 143.5t145 56.5t144.5 -56.5t52.5 -143.5t-52.5 -143.5t-144.5 -56.5t-145 56.5t-53 143.5zM97 520q0 -74 41.5 -120.5t120.5 -46.5t120 46.5t41 120.5t-41 120.5t-120 46.5t-120.5 -46.5t-41.5 -120.5zM346 565q0 -20 -14 -35.5t-36 -20.5l47 -87h-37 l-44 85h-44v-85h-33v201h93q31 0 49.5 -16t18.5 -42zM312 565q0 28 -33 28h-61v-55h59q35 0 35 27z" />
<glyph unicode="&#xaf;" horiz-adv-x="287" d="M0 626v46h287v-46h-287z" />
<glyph unicode="&#xb0;" horiz-adv-x="529" d="M54 537q0 67 48 115t116 48t115.5 -48t47.5 -115q0 -68 -48 -116t-115 -48q-68 0 -116 48.5t-48 115.5zM99 537q0 -49 34.5 -84t84.5 -35q49 0 83.5 35t34.5 84t-34.5 83.5t-83.5 34.5t-84 -34.5t-35 -83.5z" />
<glyph unicode="&#xb1;" d="M290 526h54v-169h225v-52h-225v-171h-54v171h-219v52h219v169zM71 0v49h498v-49h-498z" />
<glyph unicode="&#xb2;" horiz-adv-x="372" d="M331 430v-45h-296v34q0 39 21.5 72t40 47t66.5 45q8 6 13 9q35 23 52 35.5t32.5 33t15.5 41.5q0 29 -23 47t-63 18q-64 0 -117 -38l-26 35q72 48 147 48q62 0 99 -30t37 -79q0 -13 -2 -24.5t-9 -23t-11.5 -20t-17 -19.5t-18 -16.5t-22.5 -16.5t-21.5 -14.5t-24.5 -16 t-24 -14.5q-45 -29 -64.5 -51.5t-19.5 -56.5h235z" />
<glyph unicode="&#xb3;" horiz-adv-x="377" d="M27 422l26 38q58 -37 126 -37q45 0 74.5 22t29.5 59q0 44 -43.5 65.5t-96.5 21.5h-21v46h24q47 0 82 18.5t35 53.5q0 27 -22 42.5t-59 15.5q-54 0 -111 -35l-23 34q9 7 25.5 16.5t49 19.5t65.5 10q61 0 95 -28.5t34 -70.5q0 -31 -21 -56.5t-63 -39.5q45 -11 74 -41.5 t29 -72.5q0 -51 -39 -88t-113 -37q-82 0 -157 44z" />
<glyph unicode="&#xb4;" horiz-adv-x="207" d="M48 601h-54l122 128h96z" />
<glyph unicode="&#xb5;" horiz-adv-x="596" d="M459 0v77q-116 -88 -222 -88q-50 0 -83 19v-212h-62v729h62v-366q0 -117 98 -117q51 0 110 30t97 62v391h62v-525h-62z" />
<glyph unicode="&#xb6;" horiz-adv-x="614" d="M279 700h57v-885h-59v469q-111 0 -175 54t-64 154q0 208 241 208zM455 -186v886h59v-886h-59z" />
<glyph unicode="&#xb7;" horiz-adv-x="240" d="M80 232v106h79v-106h-79z" />
<glyph unicode="&#xb8;" horiz-adv-x="169" d="M-2 -150l18 42q29 -14 52 -14q58 0 58 49q0 17 -8 35.5t-16 29.5l-7 10h35q41 -41 41 -90q0 -37 -27 -58.5t-70 -21.5q-38 0 -76 18z" />
<glyph unicode="&#xb9;" horiz-adv-x="236" d="M174 385h-54v367l-78 -39l-24 36l106 56h50v-420z" />
<glyph unicode="&#xba;" horiz-adv-x="388" d="M349 542q0 -77 -40 -120.5t-115 -43.5t-115 43.5t-40 120.5q0 78 40 121.5t115 43.5t115 -43.5t40 -121.5zM297 542q0 123 -103 123t-103 -123q0 -122 103 -122t103 122z" />
<glyph unicode="&#xbb;" horiz-adv-x="683" d="M369 260l-306 -225v67l246 180l-246 180v66l306 -225v-43zM644 260l-306 -225v67l246 180l-246 180v66l306 -225v-43z" />
<glyph unicode="&#xbc;" horiz-adv-x="786" d="M186 280h-54v367l-78 -39l-24 36l106 56h50v-420zM542 700l-334 -700h-57l335 700h56zM394 93v39l212 288h71v-283h67v-44h-67v-93h-54v93h-229zM452 137h171v237z" />
<glyph unicode="&#xbd;" horiz-adv-x="815" d="M186 280h-54v367l-78 -39l-24 36l106 56h50v-420zM542 700l-334 -700h-57l335 700h56zM758 45v-45h-296v34q0 39 21.5 72t40 47t66.5 45q9 6 13 9q35 23 52 35.5t32.5 33t15.5 41.5q0 29 -23 47t-63 18q-64 0 -117 -38l-26 35q72 48 147 48q62 0 99 -30t37 -79 q0 -13 -2 -24.5t-9 -23t-11.5 -20t-17 -19.5t-18 -16.5t-22.5 -16.5t-21.5 -14.5t-24.5 -16t-24 -14.5q-45 -29 -64.5 -51.5t-19.5 -56.5h235z" />
<glyph unicode="&#xbe;" horiz-adv-x="903" d="M45 317l26 38q58 -37 126 -37q45 0 74.5 22t29.5 59q0 44 -43.5 65.5t-96.5 21.5h-21v46h24q47 0 82 18.5t35 53.5q0 27 -22 42.5t-59 15.5q-54 0 -111 -35l-23 34q9 7 25.5 16.5t49 19.5t65.5 10q61 0 95 -28.5t34 -70.5q0 -31 -21 -56.5t-63 -39.5q45 -11 74 -41.5 t29 -72.5q0 -51 -39 -88t-113 -37q-82 0 -157 44zM662 700l-334 -700h-57l335 700h56zM513 93v39l212 288h71v-283h67v-44h-67v-93h-54v93h-229zM571 137h171v237z" />
<glyph unicode="&#xbf;" horiz-adv-x="494" d="M329 700v-103h-77v103h77zM46 155q0 145 215 200l5 141h49l6 -178q-104 -23 -157.5 -58.5t-53.5 -98.5q0 -55 40 -85t101 -30q80 0 177 60l33 -44q-40 -29 -97.5 -51t-118.5 -22q-81 0 -140 43.5t-59 122.5z" />
<glyph unicode="&#xc0;" horiz-adv-x="673" d="M575 0l-68 182h-341l-68 -182h-70l274 700h69l274 -700h-70zM336 637l-149 -399h299zM407 752h-53l-165 128h96z" />
<glyph unicode="&#xc1;" horiz-adv-x="673" d="M575 0l-68 182h-341l-68 -182h-70l274 700h69l274 -700h-70zM336 637l-149 -399h299zM319 752h-54l122 128h96z" />
<glyph unicode="&#xc2;" horiz-adv-x="673" d="M575 0l-68 182h-341l-68 -182h-70l274 700h69l274 -700h-70zM336 637l-149 -399h299zM377 880l98 -128h-51l-88 90l-87 -90h-50l97 128h81z" />
<glyph unicode="&#xc3;" horiz-adv-x="673" d="M575 0l-68 182h-341l-68 -182h-70l274 700h69l274 -700h-70zM336 637l-149 -399h299zM226 764l-39 16q21 40 39.5 58.5t47.5 18.5q27 0 68 -24t55 -24q13 0 23.5 9t25.5 37l39 -16q-20 -39 -39 -58.5t-48 -19.5q-27 0 -68 24.5t-55 24.5q-24 0 -49 -46z" />
<glyph unicode="&#xc4;" horiz-adv-x="673" d="M575 0l-68 182h-341l-68 -182h-70l274 700h69l274 -700h-70zM336 637l-149 -399h299zM219 763v86h72v-86h-72zM383 763v86h71v-86h-71z" />
<glyph unicode="&#xc5;" horiz-adv-x="673" d="M575 0l-68 182h-341l-68 -182h-70l274 700h69l274 -700h-70zM336 637l-149 -399h299zM236 843q0 43 29.5 72.5t71.5 29.5q43 0 72.5 -29.5t29.5 -72.5q0 -42 -29.5 -71.5t-72.5 -29.5q-42 0 -71.5 29.5t-29.5 71.5zM277 843q0 -25 17.5 -42.5t42.5 -17.5q26 0 44 17.5 t18 42.5q0 26 -18 44t-44 18q-25 0 -42.5 -18t-17.5 -44z" />
<glyph unicode="&#xc6;" horiz-adv-x="993" d="M937 0h-433v182h-299l-123 -182h-76l484 700h441v-57h-362v-265h300v-56h-300v-265h368v-57zM243 238h261v385z" />
<glyph unicode="&#xc7;" horiz-adv-x="639" d="M221 -150l18 42q29 -14 52 -14q58 0 58 49q0 28 -22 62q-112 4 -186 94.5t-74 266.5q0 180 77.5 270.5t193.5 90.5q109 0 259 -103l-36 -47q-133 91 -221 91q-91 0 -148 -80.5t-57 -221.5t57 -221.5t148 -80.5q88 0 221 91l36 -47q-136 -93 -234 -102q31 -39 31 -78 q0 -37 -27 -58.5t-70 -21.5q-39 0 -76 18z" />
<glyph unicode="&#xc8;" horiz-adv-x="589" d="M534 0h-433v700h427v-57h-362v-265h300v-56h-300v-265h368v-57zM389 752h-53l-165 128h96z" />
<glyph unicode="&#xc9;" horiz-adv-x="589" d="M534 0h-433v700h427v-57h-362v-265h300v-56h-300v-265h368v-57zM301 752h-54l122 128h96z" />
<glyph unicode="&#xca;" horiz-adv-x="589" d="M534 0h-433v700h427v-57h-362v-265h300v-56h-300v-265h368v-57zM358 880l98 -128h-51l-88 90l-87 -90h-50l97 128h81z" />
<glyph unicode="&#xcb;" horiz-adv-x="589" d="M534 0h-433v700h427v-57h-362v-265h300v-56h-300v-265h368v-57zM200 762v86h72v-86h-72zM364 762v86h71v-86h-71z" />
<glyph unicode="&#xcc;" horiz-adv-x="268" d="M167 0h-65v700h65v-700zM205 752h-53l-165 128h96z" />
<glyph unicode="&#xcd;" horiz-adv-x="268" d="M165 0h-65v700h65v-700zM117 752h-54l122 128h96z" />
<glyph unicode="&#xce;" horiz-adv-x="268" d="M166 0h-65v700h65v-700zM175 880l98 -128h-51l-88 90l-87 -90h-50l97 128h81z" />
<glyph unicode="&#xcf;" horiz-adv-x="268" d="M166 0h-65v700h65v-700zM16 762v86h72v-86h-72zM180 762v86h71v-86h-71z" />
<glyph unicode="&#xd0;" horiz-adv-x="699" d="M633 350q0 -350 -323 -350h-205v322h-76v56h76v322h205q323 0 323 -350zM564 350q0 151 -61.5 222t-194.5 71h-138v-265h175v-56h-175v-265h138q133 0 194.5 71t61.5 222z" />
<glyph unicode="&#xd1;" horiz-adv-x="721" d="M552 0l-386 603v-603h-65v700h68l386 -603v603h65v-700h-68zM256 765l-39 16q21 40 39.5 58.5t47.5 18.5q27 0 68 -24t55 -24q13 0 23.5 9t25.5 37l39 -16q-20 -39 -39 -58.5t-48 -19.5q-27 0 -68 24.5t-55 24.5q-24 0 -49 -46z" />
<glyph unicode="&#xd2;" horiz-adv-x="730" d="M365 711q79 0 138 -28t93 -78.5t50.5 -114t16.5 -140.5t-16.5 -140t-50.5 -114t-93 -79t-138 -28t-138 28t-93 79t-50.5 114t-16.5 140t16.5 140.5t50.5 114t93 78.5t138 28zM365 47q63 0 109 23t72 65.5t38 95.5t12 119q0 138 -54.5 220.5t-176.5 82.5t-176 -82.5 t-54 -220.5q0 -303 230 -303zM435 752h-53l-165 128h96z" />
<glyph unicode="&#xd3;" horiz-adv-x="730" d="M365 711q79 0 138 -28t93 -78.5t50.5 -114t16.5 -140.5t-16.5 -140t-50.5 -114t-93 -79t-138 -28t-138 28t-93 79t-50.5 114t-16.5 140t16.5 140.5t50.5 114t93 78.5t138 28zM365 47q63 0 109 23t72 65.5t38 95.5t12 119q0 138 -54.5 220.5t-176.5 82.5t-176 -82.5 t-54 -220.5q0 -303 230 -303zM347 752h-54l122 128h96z" />
<glyph unicode="&#xd4;" horiz-adv-x="730" d="M365 711q79 0 138 -28t93 -78.5t50.5 -114t16.5 -140.5t-16.5 -140t-50.5 -114t-93 -79t-138 -28t-138 28t-93 79t-50.5 114t-16.5 140t16.5 140.5t50.5 114t93 78.5t138 28zM365 47q63 0 109 23t72 65.5t38 95.5t12 119q0 138 -54.5 220.5t-176.5 82.5t-176 -82.5 t-54 -220.5q0 -303 230 -303zM405 880l98 -128h-51l-88 90l-87 -90h-50l97 128h81z" />
<glyph unicode="&#xd5;" horiz-adv-x="730" d="M365 711q79 0 138 -28t93 -78.5t50.5 -114t16.5 -140.5t-16.5 -140t-50.5 -114t-93 -79t-138 -28t-138 28t-93 79t-50.5 114t-16.5 140t16.5 140.5t50.5 114t93 78.5t138 28zM365 47q63 0 109 23t72 65.5t38 95.5t12 119q0 138 -54.5 220.5t-176.5 82.5t-176 -82.5 t-54 -220.5q0 -303 230 -303zM254 764l-39 16q21 40 39.5 58.5t47.5 18.5q27 0 68 -24t55 -24q13 0 23.5 9t25.5 37l39 -16q-20 -39 -39 -58.5t-48 -19.5q-27 0 -68 24.5t-55 24.5q-24 0 -49 -46z" />
<glyph unicode="&#xd6;" horiz-adv-x="730" d="M365 711q79 0 138 -28t93 -78.5t50.5 -114t16.5 -140.5t-16.5 -140t-50.5 -114t-93 -79t-138 -28t-138 28t-93 79t-50.5 114t-16.5 140t16.5 140.5t50.5 114t93 78.5t138 28zM365 47q63 0 109 23t72 65.5t38 95.5t12 119q0 138 -54.5 220.5t-176.5 82.5t-176 -82.5 t-54 -220.5q0 -303 230 -303zM247 762v86h72v-86h-72zM411 762v86h71v-86h-71z" />
<glyph unicode="&#xd7;" horiz-adv-x="641" d="M514 473l-155 -139l156 -140l-37 -36l-158 141l-156 -140l-38 37l154 139l-156 140l37 38l158 -143l157 141z" />
<glyph unicode="&#xd8;" horiz-adv-x="726" d="M363 711q117 0 191 -63l38 52h58l-63 -86q74 -94 74 -264q0 -77 -16.5 -140t-50.5 -114t-93 -79t-138 -28q-119 0 -191 63l-38 -52h-57l63 85q-75 95 -75 265q0 77 16.5 140.5t50.5 114t93 78.5t138 28zM363 47q63 0 109 23t72 65.5t38 95.5t12 119q0 133 -48 209 l-336 -457q55 -55 153 -55zM133 350q0 -135 47 -210l336 457q-58 56 -153 56q-122 0 -176 -82.5t-54 -220.5z" />
<glyph unicode="&#xd9;" horiz-adv-x="694" d="M600 700v-453q0 -258 -252 -258q-254 0 -254 258v453h65v-453q0 -94 40.5 -147t148.5 -53q106 0 146.5 53t40.5 147v453h65zM418 752h-53l-165 128h96z" />
<glyph unicode="&#xda;" horiz-adv-x="694" d="M600 700v-453q0 -258 -252 -258q-254 0 -254 258v453h65v-453q0 -94 40.5 -147t148.5 -53q106 0 146.5 53t40.5 147v453h65zM330 752h-54l122 128h96z" />
<glyph unicode="&#xdb;" horiz-adv-x="694" d="M600 700v-453q0 -258 -252 -258q-254 0 -254 258v453h65v-453q0 -94 40.5 -147t148.5 -53q106 0 146.5 53t40.5 147v453h65zM388 880l98 -128h-51l-88 90l-87 -90h-50l97 128h81z" />
<glyph unicode="&#xdc;" horiz-adv-x="694" d="M600 700v-453q0 -258 -252 -258q-254 0 -254 258v453h65v-453q0 -94 40.5 -147t148.5 -53q106 0 146.5 53t40.5 147v453h65zM229 762v86h72v-86h-72zM393 762v86h71v-86h-71z" />
<glyph unicode="&#xdd;" horiz-adv-x="623" d="M279 0v277l-257 423h73l217 -373l216 373h73l-257 -423v-277h-65zM295 752h-54l122 128h96z" />
<glyph unicode="&#xde;" horiz-adv-x="646" d="M593 363q0 -212 -254 -212h-173v-151h-65v700h65v-129h173q254 0 254 -208zM526 363q0 151 -186 151h-174v-306h174q186 0 186 155z" />
<glyph unicode="&#xdf;" horiz-adv-x="623" d="M303 731q92 0 151 -44t59 -119q0 -25 -7 -45.5t-14 -28.5l-7 -9q-108 -33 -108 -97q0 -21 13.5 -39.5t29 -29.5t56.5 -39q37 -25 56.5 -41.5t36 -46t16.5 -65.5q0 -65 -45 -101.5t-113 -36.5q-87 0 -192 55l29 47q96 -49 161 -49q42 0 70 22t28 63q0 33 -20.5 55.5 t-71.5 54.5q-1 1 -15 10t-17 10.5t-15 10.5t-15.5 12.5t-13.5 12.5t-13.5 14.5t-10 15.5t-9 18.5t-4.5 19.5t-2 22q0 96 128 140q8 19 8 42q0 52 -40 82.5t-106 30.5q-156 0 -156 -185v-493h-62v493q0 127 59.5 182.5t155.5 55.5z" />
<glyph unicode="&#xe0;" horiz-adv-x="571" d="M426 0v72q-92 -83 -200 -83q-32 0 -61 8.5t-55 27t-41.5 52t-15.5 78.5q0 86 51.5 129.5t127.5 43.5q27 0 61.5 -5t82 -14.5t50.5 -10.5v66q0 62 -25.5 91t-90.5 29q-64 0 -197 -47l-24 49q135 50 226 50q173 0 173 -166v-370h-62zM238 44q96 0 188 83v129 q-7 1 -33.5 6.5t-45 9t-44.5 6.5t-46 3q-74 0 -106.5 -34.5t-32.5 -89.5q0 -58 32.5 -85.5t87.5 -27.5zM360 601h-53l-165 128h96z" />
<glyph unicode="&#xe1;" horiz-adv-x="571" d="M426 0v72q-92 -83 -200 -83q-32 0 -61 8.5t-55 27t-41.5 52t-15.5 78.5q0 86 51.5 129.5t127.5 43.5q27 0 61.5 -5t82 -14.5t50.5 -10.5v66q0 62 -25.5 91t-90.5 29q-64 0 -197 -47l-24 49q135 50 226 50q173 0 173 -166v-370h-62zM238 44q96 0 188 83v129 q-7 1 -33.5 6.5t-45 9t-44.5 6.5t-46 3q-74 0 -106.5 -34.5t-32.5 -89.5q0 -58 32.5 -85.5t87.5 -27.5zM272 601h-54l122 128h96z" />
<glyph unicode="&#xe2;" horiz-adv-x="571" d="M426 0v72q-92 -83 -200 -83q-32 0 -61 8.5t-55 27t-41.5 52t-15.5 78.5q0 86 51.5 129.5t127.5 43.5q27 0 61.5 -5t82 -14.5t50.5 -10.5v66q0 62 -25.5 91t-90.5 29q-64 0 -197 -47l-24 49q135 50 226 50q173 0 173 -166v-370h-62zM238 44q96 0 188 83v129 q-7 1 -33.5 6.5t-45 9t-44.5 6.5t-46 3q-74 0 -106.5 -34.5t-32.5 -89.5q0 -58 32.5 -85.5t87.5 -27.5zM329 729l98 -128h-51l-88 90l-87 -90h-50l97 128h81z" />
<glyph unicode="&#xe3;" horiz-adv-x="571" d="M426 0v72q-92 -83 -200 -83q-32 0 -61 8.5t-55 27t-41.5 52t-15.5 78.5q0 86 51.5 129.5t127.5 43.5q27 0 61.5 -5t82 -14.5t50.5 -10.5v66q0 62 -25.5 91t-90.5 29q-64 0 -197 -47l-24 49q135 50 226 50q173 0 173 -166v-370h-62zM238 44q96 0 188 83v129 q-7 1 -33.5 6.5t-45 9t-44.5 6.5t-46 3q-74 0 -106.5 -34.5t-32.5 -89.5q0 -58 32.5 -85.5t87.5 -27.5zM178 613l-39 16q21 40 39.5 58.5t47.5 18.5q27 0 68 -24t55 -24q13 0 23.5 9t25.5 37l39 -16q-20 -39 -39 -58.5t-48 -19.5q-27 0 -68 24.5t-55 24.5q-24 0 -49 -46z " />
<glyph unicode="&#xe4;" horiz-adv-x="571" d="M426 0v72q-92 -83 -200 -83q-32 0 -61 8.5t-55 27t-41.5 52t-15.5 78.5q0 86 51.5 129.5t127.5 43.5q27 0 61.5 -5t82 -14.5t50.5 -10.5v66q0 62 -25.5 91t-90.5 29q-64 0 -197 -47l-24 49q135 50 226 50q173 0 173 -166v-370h-62zM238 44q96 0 188 83v129 q-7 1 -33.5 6.5t-45 9t-44.5 6.5t-46 3q-74 0 -106.5 -34.5t-32.5 -89.5q0 -58 32.5 -85.5t87.5 -27.5zM171 611v86h72v-86h-72zM335 611v86h71v-86h-71z" />
<glyph unicode="&#xe5;" horiz-adv-x="571" d="M426 0v72q-92 -83 -200 -83q-32 0 -61 8.5t-55 27t-41.5 52t-15.5 78.5q0 86 51.5 129.5t127.5 43.5q27 0 61.5 -5t82 -14.5t50.5 -10.5v66q0 62 -25.5 91t-90.5 29q-64 0 -197 -47l-24 49q135 50 226 50q173 0 173 -166v-370h-62zM238 44q96 0 188 83v129 q-7 1 -33.5 6.5t-45 9t-44.5 6.5t-46 3q-74 0 -106.5 -34.5t-32.5 -89.5q0 -58 32.5 -85.5t87.5 -27.5zM187 692q0 43 29.5 72.5t71.5 29.5q43 0 72.5 -29.5t29.5 -72.5q0 -42 -29.5 -71.5t-72.5 -29.5q-42 0 -71.5 29.5t-29.5 71.5zM228 692q0 -26 17 -43t43 -17t44 17.5 t18 42.5q0 26 -18 44t-44 18q-25 0 -42.5 -18t-17.5 -44z" />
<glyph unicode="&#xe6;" horiz-adv-x="920" d="M854 245h-382q4 -93 48.5 -148.5t112.5 -55.5q78 0 197 73l33 -43q-28 -16 -35.5 -20.5t-38.5 -20t-50 -22t-49.5 -13t-58.5 -6.5q-121 0 -184 104q-100 -104 -221 -104q-32 0 -61 8.5t-55 27t-41.5 52t-15.5 78.5q0 86 51.5 129.5t127.5 43.5q53 0 175 -34q3 50 18 90 q-4 52 -30 76t-85 24q-64 0 -197 -47l-24 49q135 50 226 50q116 0 155 -75q66 75 174 75q103 0 159 -62.5t56 -163.5zM238 44q97 0 190 89q-21 52 -22 116q-7 2 -32.5 9.5t-40.5 11t-37 7.5t-39 4q-74 0 -106.5 -34.5t-32.5 -89.5q0 -58 32.5 -85.5t87.5 -27.5zM643 485 q-74 0 -119 -53t-51 -142h323q4 195 -153 195z" />
<glyph unicode="&#xe7;" horiz-adv-x="520" d="M156 -150l18 42q29 -14 52 -14q58 0 58 49q0 29 -22 63q-86 8 -144.5 79.5t-58.5 193.5q0 129 65 201t158 72q13 0 26.5 -1.5t27.5 -5t25 -6.5t25 -9t21.5 -9.5t21.5 -11t18 -9.5t17 -10t14 -8l-31 -47q-2 1 -15.5 9t-23 13.5t-26.5 13.5t-31.5 13t-32.5 9t-34 4 q-69 0 -114.5 -59.5t-45.5 -158.5t46 -159t114 -60q16 0 34 4t32.5 9t31.5 13t26.5 13.5t23 13.5t15.5 9l31 -47q-103 -63 -180 -69q31 -39 31 -78q0 -37 -27 -58.5t-70 -21.5q-38 0 -76 18z" />
<glyph unicode="&#xe8;" horiz-adv-x="572" d="M506 245h-382q4 -93 48.5 -148.5t112.5 -55.5q78 0 197 73l33 -43q-28 -16 -35.5 -20.5t-38.5 -20t-50 -22t-49.5 -13t-58.5 -6.5q-96 0 -160.5 72t-64.5 202q0 129 66.5 201t171.5 72q103 0 159 -62.5t56 -163.5zM295 485q-74 0 -119 -53t-51 -142h323q4 195 -153 195z M366 601h-53l-165 128h96z" />
<glyph unicode="&#xe9;" horiz-adv-x="572" d="M506 245h-382q4 -93 48.5 -148.5t112.5 -55.5q78 0 197 73l33 -43q-28 -16 -35.5 -20.5t-38.5 -20t-50 -22t-49.5 -13t-58.5 -6.5q-96 0 -160.5 72t-64.5 202q0 129 66.5 201t171.5 72q103 0 159 -62.5t56 -163.5zM295 485q-74 0 -119 -53t-51 -142h323q4 195 -153 195z M279 601h-54l122 128h96z" />
<glyph unicode="&#xea;" horiz-adv-x="572" d="M506 245h-382q4 -93 48.5 -148.5t112.5 -55.5q78 0 197 73l33 -43q-28 -16 -35.5 -20.5t-38.5 -20t-50 -22t-49.5 -13t-58.5 -6.5q-96 0 -160.5 72t-64.5 202q0 129 66.5 201t171.5 72q103 0 159 -62.5t56 -163.5zM295 485q-74 0 -119 -53t-51 -142h323q4 195 -153 195z M336 729l98 -128h-51l-88 90l-87 -90h-50l97 128h81z" />
<glyph unicode="&#xeb;" horiz-adv-x="572" d="M506 245h-382q4 -93 48.5 -148.5t112.5 -55.5q78 0 197 73l33 -43q-28 -16 -35.5 -20.5t-38.5 -20t-50 -22t-49.5 -13t-58.5 -6.5q-96 0 -160.5 72t-64.5 202q0 129 66.5 201t171.5 72q103 0 159 -62.5t56 -163.5zM295 485q-74 0 -119 -53t-51 -142h323q4 195 -153 195z M178 611v86h72v-86h-72zM342 611v86h71v-86h-71z" />
<glyph unicode="&#xec;" horiz-adv-x="238" d="M152 0h-62v525h62v-525zM191 601h-53l-165 128h96z" />
<glyph unicode="&#xed;" horiz-adv-x="239" d="M149 0h-62v525h62v-525zM102 601h-54l122 128h96z" />
<glyph unicode="&#xee;" horiz-adv-x="240" d="M151 0h-62v525h62v-525zM160 729l98 -128h-51l-88 90l-87 -90h-50l97 128h81z" />
<glyph unicode="&#xef;" horiz-adv-x="238" d="M150 0h-62v525h62v-525zM1 611v86h72v-86h-72zM165 611v86h71v-86h-71z" />
<glyph unicode="&#xf0;" horiz-adv-x="605" d="M233 569h-73l96 72q-27 6 -55 6q-19 0 -37.5 -2.5t-27.5 -4.5l-9 -2l-14 50q37 12 89 12q54 0 108 -19l63 48h75l-92 -69q87 -49 137 -149.5t50 -231.5q0 -81 -19.5 -139.5t-54 -90t-75.5 -46t-91 -14.5q-113 0 -178 66t-65 177q0 110 62.5 177t165.5 67q37 0 69.5 -8.5 t52 -20.5t34 -24t20.5 -21l6 -8q-16 72 -57.5 135t-106.5 94zM478 233q0 90 -46 140t-131 50q-84 0 -130 -52.5t-46 -138.5q0 -88 46 -139t130 -51q83 0 130 50.5t47 140.5z" />
<glyph unicode="&#xf1;" horiz-adv-x="600" d="M150 525v-78q118 89 221 89q146 0 146 -160v-376h-62v366q0 117 -98 117q-53 0 -112.5 -30.5t-94.5 -62.5v-390h-62v525h62zM192 613l-39 16q21 40 39.5 58.5t47.5 18.5q27 0 68 -24t55 -24q13 0 23.5 9t25.5 37l39 -16q-20 -39 -39 -58.5t-48 -19.5q-27 0 -68 24.5 t-55 24.5q-24 0 -49 -46z" />
<glyph unicode="&#xf2;" horiz-adv-x="599" d="M538 262q0 -128 -62 -200.5t-177 -72.5q-116 0 -177.5 72.5t-61.5 200.5q0 129 62 201.5t177 72.5t177 -73t62 -201zM474 262q0 104 -43 162.5t-132 58.5t-131.5 -58.5t-42.5 -162.5q0 -220 174 -220q89 0 132 58t43 162zM370 601h-53l-165 128h96z" />
<glyph unicode="&#xf3;" horiz-adv-x="599" d="M538 262q0 -128 -62 -200.5t-177 -72.5q-116 0 -177.5 72.5t-61.5 200.5q0 129 62 201.5t177 72.5t177 -73t62 -201zM474 262q0 104 -43 162.5t-132 58.5t-131.5 -58.5t-42.5 -162.5q0 -220 174 -220q89 0 132 58t43 162zM282 601h-54l122 128h96z" />
<glyph unicode="&#xf4;" horiz-adv-x="599" d="M538 262q0 -128 -62 -200.5t-177 -72.5q-116 0 -177.5 72.5t-61.5 200.5q0 129 62 201.5t177 72.5t177 -73t62 -201zM474 262q0 104 -43 162.5t-132 58.5t-131.5 -58.5t-42.5 -162.5q0 -220 174 -220q89 0 132 58t43 162zM340 729l98 -128h-51l-88 90l-87 -90h-50l97 128 h81z" />
<glyph unicode="&#xf5;" horiz-adv-x="599" d="M538 262q0 -128 -62 -200.5t-177 -72.5q-116 0 -177.5 72.5t-61.5 200.5q0 129 62 201.5t177 72.5t177 -73t62 -201zM474 262q0 104 -43 162.5t-132 58.5t-131.5 -58.5t-42.5 -162.5q0 -220 174 -220q89 0 132 58t43 162zM189 613l-39 16q21 40 39.5 58.5t47.5 18.5 q27 0 68 -24t55 -24q13 0 23.5 9t25.5 37l39 -16q-20 -39 -39 -58.5t-48 -19.5q-27 0 -68 24.5t-55 24.5q-24 0 -49 -46z" />
<glyph unicode="&#xf6;" horiz-adv-x="599" d="M538 262q0 -128 -62 -200.5t-177 -72.5q-116 0 -177.5 72.5t-61.5 200.5q0 129 62 201.5t177 72.5t177 -73t62 -201zM474 262q0 104 -43 162.5t-132 58.5t-131.5 -58.5t-42.5 -162.5q0 -220 174 -220q89 0 132 58t43 162zM182 611v86h72v-86h-72zM346 611v86h71v-86h-71z " />
<glyph unicode="&#xf7;" d="M267 504q0 22 15.5 38t37.5 16t38 -16t16 -38t-16 -38t-38 -16t-37.5 15.5t-15.5 38.5zM267 162q0 23 15.5 39t37.5 16t38 -16t16 -39q0 -22 -16 -37.5t-38 -15.5t-37.5 15.5t-15.5 37.5zM71 307v52h498v-52h-498z" />
<glyph unicode="&#xf8;" horiz-adv-x="595" d="M536 262q0 -128 -62 -200.5t-177 -72.5q-90 0 -148 44l-25 -33h-55l48 63q-59 71 -59 199q0 129 62 201.5t177 72.5q89 0 147 -46l27 35h54l-49 -64q60 -74 60 -199zM472 262q0 93 -34 149l-254 -332q43 -37 113 -37q89 0 132 58t43 162zM123 262q0 -95 33 -148l253 331 q-43 38 -112 38q-89 0 -131.5 -58.5t-42.5 -162.5z" />
<glyph unicode="&#xf9;" horiz-adv-x="600" d="M450 0v77q-116 -88 -222 -88q-145 0 -145 160v376h62v-366q0 -117 98 -117q51 0 110 30t97 62v391h62v-525h-62zM367 601h-53l-165 128h96z" />
<glyph unicode="&#xfa;" horiz-adv-x="600" d="M450 0v77q-116 -88 -222 -88q-145 0 -145 160v376h62v-366q0 -117 98 -117q51 0 110 30t97 62v391h62v-525h-62zM280 601h-54l122 128h96z" />
<glyph unicode="&#xfb;" horiz-adv-x="600" d="M450 0v77q-116 -88 -222 -88q-145 0 -145 160v376h62v-366q0 -117 98 -117q51 0 110 30t97 62v391h62v-525h-62zM338 729l98 -128h-51l-88 90l-87 -90h-50l97 128h81z" />
<glyph unicode="&#xfc;" horiz-adv-x="600" d="M450 0v77q-116 -88 -222 -88q-145 0 -145 160v376h62v-366q0 -117 98 -117q51 0 110 30t97 62v391h62v-525h-62zM179 611v86h72v-86h-72zM343 611v86h71v-86h-71z" />
<glyph unicode="&#xfd;" horiz-adv-x="550" d="M33 525h69l173 -450l173 450h70l-297 -729h-69l92 207zM258 601h-54l122 128h96z" />
<glyph unicode="&#xfe;" horiz-adv-x="598" d="M339 -11q-103 0 -189 82v-275h-62v933h62v-276q87 83 189 83q87 0 142.5 -67.5t55.5 -206.5t-55.5 -206t-142.5 -67zM332 482q-103 0 -182 -90v-260q80 -89 182 -89q69 0 105 58t36 161q0 104 -36 162t-105 58z" />
<glyph unicode="&#xff;" horiz-adv-x="550" d="M33 525h69l173 -450l173 450h70l-297 -729h-69l92 207zM158 611v86h72v-86h-72zM322 611v86h71v-86h-71z" />
<glyph unicode="&#x152;" horiz-adv-x="1085" d="M1031 0h-433v98q-76 -109 -233 -109q-79 0 -138 28t-93 79t-50.5 114t-16.5 140t16.5 140.5t50.5 114t93 78.5t138 28q157 0 233 -109v98h427v-57h-362v-265h300v-56h-300v-265h368v-57zM365 47q63 0 109 23t72 65.5t38 95.5t12 119q0 138 -54.5 220.5t-176.5 82.5 t-176 -82.5t-54 -220.5q0 -303 230 -303z" />
<glyph unicode="&#x153;" horiz-adv-x="988" d="M923 245h-382q4 -93 48.5 -148.5t112.5 -55.5q78 0 197 73l33 -43q-28 -16 -35.5 -20.5t-38.5 -20t-50 -22t-49.5 -13t-58.5 -6.5q-61 0 -112.5 31t-80.5 90q-58 -121 -208 -121q-116 0 -177.5 72.5t-61.5 200.5q0 129 62 201.5t177 72.5q149 0 208 -122q63 122 206 122 q103 0 159 -62.5t56 -163.5zM474 262q0 104 -43 162.5t-132 58.5t-131.5 -58.5t-42.5 -162.5q0 -220 174 -220q89 0 132 58t43 162zM712 485q-74 0 -119 -53t-51 -142h323q4 195 -153 195z" />
<glyph unicode="&#x178;" horiz-adv-x="623" d="M279 0v277l-257 423h73l217 -373l216 373h73l-257 -423v-277h-65zM193 762v86h72v-86h-72zM357 762v86h71v-86h-71z" />
<glyph unicode="&#x2c6;" horiz-adv-x="264" d="M172 729l98 -128h-51l-88 90l-87 -90h-50l97 128h81z" />
<glyph unicode="&#x2dc;" horiz-adv-x="284" d="M32 613l-39 16q21 40 39.5 58.5t47.5 18.5q27 0 68 -24t55 -24q13 0 23.5 9t25.5 37l39 -16q-20 -39 -39 -58.5t-48 -19.5q-27 0 -68 24.5t-55 24.5q-24 0 -49 -46z" />
<glyph unicode="&#x2000;" horiz-adv-x="472" />
<glyph unicode="&#x2001;" horiz-adv-x="945" />
<glyph unicode="&#x2002;" horiz-adv-x="472" />
<glyph unicode="&#x2003;" horiz-adv-x="945" />
<glyph unicode="&#x2004;" horiz-adv-x="315" />
<glyph unicode="&#x2005;" horiz-adv-x="236" />
<glyph unicode="&#x2006;" horiz-adv-x="157" />
<glyph unicode="&#x2007;" horiz-adv-x="157" />
<glyph unicode="&#x2008;" horiz-adv-x="118" />
<glyph unicode="&#x2009;" horiz-adv-x="189" />
<glyph unicode="&#x200a;" horiz-adv-x="52" />
<glyph unicode="&#x2010;" horiz-adv-x="434" d="M353 256h-273v57h273v-57z" />
<glyph unicode="&#x2011;" horiz-adv-x="434" d="M353 256h-273v57h273v-57z" />
<glyph unicode="&#x2012;" horiz-adv-x="434" d="M353 256h-273v57h273v-57z" />
<glyph unicode="&#x2013;" horiz-adv-x="563" d="M485 257h-404v56h404v-56z" />
<glyph unicode="&#x2014;" horiz-adv-x="669" d="M589 257h-509v56h509v-56z" />
<glyph unicode="&#x2018;" horiz-adv-x="228" d="M153 594v-106h-75l-11 110l69 122l25 -25l-44 -101h36z" />
<glyph unicode="&#x2019;" horiz-adv-x="223" d="M80 594v106h75l11 -110l-69 -122l-25 25l44 101h-36z" />
<glyph unicode="&#x201a;" horiz-adv-x="243" d="M87 0v106h75l11 -110l-69 -122l-25 25l44 101h-36z" />
<glyph unicode="&#x201c;" horiz-adv-x="394" d="M153 594v-106h-75l-11 110l69 122l25 -25l-44 -101h36zM324 594v-106h-75l-11 110l69 122l25 -25l-44 -101h36z" />
<glyph unicode="&#x201d;" horiz-adv-x="394" d="M80 594v106h75l11 -110l-69 -122l-25 25l44 101h-36zM250 594v106h75l11 -110l-69 -122l-25 25l44 101h-36z" />
<glyph unicode="&#x201e;" horiz-adv-x="413" d="M87 0v106h75l11 -110l-69 -122l-25 25l44 101h-36zM258 0v106h75l11 -110l-69 -122l-25 25l44 101h-36z" />
<glyph unicode="&#x2022;" horiz-adv-x="426" d="M94 284q0 50 34.5 85t83.5 35q50 0 85 -35t35 -85t-35 -84.5t-85 -34.5q-49 0 -83.5 34.5t-34.5 84.5z" />
<glyph unicode="&#x2026;" horiz-adv-x="620" d="M270 0v106h79v-106h-79zM79 0v106h79v-106h-79zM461 0v106h79v-106h-79z" />
<glyph unicode="&#x202f;" horiz-adv-x="189" />
<glyph unicode="&#x2039;" horiz-adv-x="408" d="M39 304l306 225v-67l-246 -180l246 -180v-66l-306 225v43z" />
<glyph unicode="&#x203a;" horiz-adv-x="408" d="M369 260l-306 -225v67l246 180l-246 180v66l306 -225v-43z" />
<glyph unicode="&#x205f;" horiz-adv-x="236" />
<glyph unicode="&#x20ac;" horiz-adv-x="703" d="M645 608l-36 -47q-133 91 -221 91q-73 0 -124.5 -52t-70.5 -146h300v-46h-307q-3 -28 -3 -58q0 -34 3 -64h307v-46h-299q19 -92 71 -142t123 -50q88 0 221 91l36 -47q-150 -103 -259 -103q-96 0 -167.5 63t-94.5 188h-70v46h64q-3 30 -3 64q0 20 2 58h-63v46h69 q22 128 94 192.5t169 64.5q109 0 259 -103z" />
<glyph unicode="&#x2122;" horiz-adv-x="657" d="M530 476v163l-72 -126h-27l-73 129v-166h-42v224h46l82 -146l84 146h44v-224h-42zM277 665h-83v-189h-43v189h-81v35h207v-35z" />
<glyph unicode="&#x25fc;" horiz-adv-x="525" d="M0 525h525v-525h-525v525z" />
</font>
</defs>
</svg>
