<svg width="123px" height="123px" viewBox="1566 7 123 123" version="1.1" xmlns="http://www.w3.org/2000/svg" xmlns:xlink="http://www.w3.org/1999/xlink">
    <defs>
        <linearGradient x1="50%" y1="0%" x2="50%" y2="100%" id="linearGradient-1">
            <stop stop-color="#6B6B66" offset="0%"></stop>
            <stop stop-color="#D8D8D8" offset="100%"></stop>
        </linearGradient>
    </defs>
    <g id="Group" stroke="none" stroke-width="1" fill="none" fill-rule="evenodd" transform="translate(1566.000000, 7.000000)">
        <rect id="Rectangle-1" fill="url(#linearGradient-1)" x="0" y="0" width="123" height="123"></rect>
        <path d="M84.7051765,48.7042561 C84.7051765,48.7042561 85.3094444,44.8832569 85.3094435,40.5139421 C85.3094426,36.1446272 85.0391579,27.9861612 83.6731023,25.3048344 C82.3070467,22.6235076 77.717371,20.5016865 77.717371,20.5016865 C77.717371,20.5016865 79.6317444,17.2789292 78.2527757,14.7542638 C76.8738069,12.2295983 69.1879082,12.6634311 61.0354701,14.577804 C52.8830321,16.4921769 45.8582115,20.3062897 41.2117252,23.0943534 C36.5652388,25.8824172 35.3196916,27.7907647 33.9665467,32.7204472 C32.6134018,37.6501297 34.3384033,49.0494286 34.3384033,49.0494286 C34.3384033,49.0494286 31.9833112,48.2308275 29.9062512,48.2308276 C27.8291912,48.2308276 26.406323,49.924841 25.2537396,52.9401506 C24.1011562,55.9554602 27.1612263,61.9989908 28.6977172,64.3592474 C30.2342081,66.7195041 33.431142,68.501317 34.639676,69.8174483 C35.84821,71.1335797 35.3575659,78.7686911 36.2829035,80.9662605 C37.2082411,83.1638299 41.5198841,87.6958323 41.5198841,87.6958323 C41.5198841,87.6958323 40.8149061,99.7131707 40.814906,101.299587 C40.8149058,102.886003 28.6977172,122.917648 28.6977172,122.917648 L90.6117249,122.917648 C90.6117249,122.917648 78.4945377,102.886003 78.4945376,101.299587 C78.4945374,99.7131707 77.7895594,87.6958323 77.7895594,87.6958323 C77.7895594,87.6958323 82.1012024,83.1638299 83.0265401,80.9662605 C83.9518777,78.7686911 83.4612335,71.1335797 84.6697675,69.8174483 C85.8783015,68.501317 89.0752354,66.7195041 90.6117264,64.3592474 C92.1482173,61.9989908 95.2082873,55.9554602 94.0557039,52.9401506 C92.9031206,49.924841 91.4802524,48.2308276 89.4031924,48.2308276 C87.3261324,48.2308275 84.9710403,49.0494286 84.9710403,49.0494286 L84.2684699,48.9732804 L84.7051765,48.7042561 Z" id="Combined-Shape" fill="#FFFFFF"></path>
    </g>
</svg>